<svg width="48" height="48" viewBox="0 0 128 128" xmlns="http://www.w3.org/2000/svg"><!----><path d="M64.0001 0L119.426 32V96L64.0001 128L8.57446 96V32L64.0001 0Z" fill="#310002"></path><path d="M119.426 32V96L64.0002 128L8.57446 96V32L64.0002 0L119.426 32ZM15.5745 36.041V91.958L64.0002 119.916L112.426 91.958V36.041L64.0002 8.08301L15.5745 36.041Z" fill="#FF0000"></path><!----><g transform="translate(16, 16)"><path d="M35.3877 75.2891C16.706 60.7867 7.36521 40.2417 53.2571 6C53.2571 6 50.3985 14.4451 53.2571 22.1137C57.912 34.6012 76 41.0474 76 55.5498C73.9694 70.455 58.1306 78.5118 58.1306 78.5118C58.1306 78.5118 63.049 64.4123 58.9428 57.564C55.3327 49.5071 50.0531 46.2844 45.9469 33.7962C45.9469 33.7962 37.8244 41.0474 37.8244 51.9242C37.8244 60.7867 49.0685 67.5372 50.4142 75.2891C51.5763 81.9827 45.9469 91 45.9469 91C42.6979 82.9431 44.3224 83.7488 35.3877 75.2891Z" fill="#FF0000"></path></g></svg>