<svg width="48" height="48" viewBox="0 0 128 128" xmlns="http://www.w3.org/2000/svg"><!----><path d="M64.0001 0L119.426 32V96L64.0001 128L8.57446 96V32L64.0001 0Z" fill="#312000"></path><path d="M119.426 32V96L64.0002 128L8.57446 96V32L64.0002 0L119.426 32ZM15.5745 36.041V91.958L64.0002 119.916L112.426 91.958V36.041L64.0002 8.08301L15.5745 36.041Z" fill="#FF9200"></path><!----><g transform="translate(16, 16)"><path d="M32 18L46 26V42L32 50L18 42V26L32 18Z" fill="#FF9200"></path><path d="M64 18L78 26V42L64 50L50 42V26L64 18Z" fill="#FF9200"></path><path d="M48 46L62 54V70L48 78L34 70V54L48 46Z" fill="#FF9200"></path></g></svg>