<svg width="48" height="48" viewBox="0 0 128 128" xmlns="http://www.w3.org/2000/svg"><!----><path d="M64.0001 0L119.426 32V96L64.0001 128L8.57446 96V32L64.0001 0Z" fill="#003110"></path><path d="M119.426 32V96L64.0002 128L8.57446 96V32L64.0002 0L119.426 32ZM15.5745 36.041V91.958L64.0002 119.916L112.426 91.958V36.041L64.0002 8.08301L15.5745 36.041Z" fill="#00FF51"></path><!----><g transform="translate(16, 16)"><path fill-rule="evenodd" clip-rule="evenodd" d="M60.5833 28.69C62.9179 26.4969 66.0299 25.7788 69.1279 25.7788C72.446 25.7788 75.5112 26.788 77.751 29.0278C79.9908 31.2676 81 34.3328 81 37.6509C81 40.7489 80.2819 43.8609 78.0888 46.1955C75.8569 48.5714 72.6853 49.523 69.1279 49.523H17.5C15.567 49.523 14 47.956 14 46.023C14 44.09 15.567 42.523 17.5 42.523H69.1279C71.5008 42.523 72.5152 41.9048 72.9868 41.4028C73.4972 40.8595 74 39.7855 74 37.6509C74 35.7364 73.4394 34.6156 72.8013 33.9775C72.1632 33.3394 71.0424 32.7788 69.1279 32.7788C66.9933 32.7788 65.9193 33.2816 65.376 33.792C64.874 34.2636 64.2558 35.278 64.2558 37.6509C64.2558 39.5839 62.6888 41.1509 60.7558 41.1509C58.8228 41.1509 57.2558 39.5839 57.2558 37.6509C57.2558 34.0935 58.2074 30.9219 60.5833 28.69Z" fill="#00FF51"></path><path fill-rule="evenodd" clip-rule="evenodd" d="M38.2276 22.7973C40.0869 20.938 42.6323 20 45.4071 20C48.1819 20 50.7273 20.938 52.5866 22.7973C54.4458 24.6566 55.3838 27.202 55.3839 29.9767C55.3839 32.7515 54.4458 35.2969 52.5866 37.1562C50.7273 39.0155 48.1819 39.9535 45.4071 39.9535H23.0815C21.4247 39.9535 20.0815 38.6103 20.0815 36.9535C20.0815 35.2966 21.4247 33.9535 23.0815 33.9535H45.4071C46.8184 33.9535 47.7613 33.4962 48.3439 32.9136C48.9265 32.331 49.3839 31.388 49.3839 29.9768C49.3838 28.5655 48.9265 27.6225 48.3439 27.0399C47.7613 26.4573 46.8184 26 45.4071 26C43.9958 26 43.0529 26.4573 42.4703 27.0399C41.8877 27.6225 41.4304 28.5655 41.4304 29.9767C41.4304 31.6336 40.0872 32.9767 38.4304 32.9767C36.7735 32.9767 35.4304 31.6336 35.4304 29.9767C35.4304 27.202 36.3684 24.6566 38.2276 22.7973Z" fill="#00FF51"></path><path fill-rule="evenodd" clip-rule="evenodd" d="M51.6489 73.4247C53.8869 75.383 56.7383 76.0349 59.3606 76.0349C65.2885 76.0349 71.2327 71.1653 71.2327 64.1628C71.2327 57.1603 65.2885 52.2907 59.3606 52.2907H23.0815C21.1485 52.2907 19.5815 53.8577 19.5815 55.7907C19.5815 57.7237 21.1485 59.2907 23.0815 59.2907H59.3606C61.8049 59.2907 64.2327 61.3979 64.2327 64.1628C64.2327 66.9278 61.8048 69.0349 59.3606 69.0349C57.7969 69.0349 56.8111 68.6403 56.2584 68.1567C55.7891 67.7461 55.1862 66.8866 55.1862 64.8605C55.1862 62.9275 53.6192 61.3605 51.6862 61.3605C49.7532 61.3605 48.1862 62.9275 48.1862 64.8605C48.1862 68.4158 49.3274 71.3935 51.6489 73.4247Z" fill="#00FF51"></path></g></svg>