<svg width="48" height="48" viewBox="0 0 128 128" xmlns="http://www.w3.org/2000/svg"><!----><path d="M64.0001 0L119.426 32V96L64.0001 128L8.57446 96V32L64.0001 0Z" fill="#001231"></path><path d="M119.426 32V96L64.0002 128L8.57446 96V32L64.0002 0L119.426 32ZM15.5745 36.041V91.958L64.0002 119.916L112.426 91.958V36.041L64.0002 8.08301L15.5745 36.041Z" fill="#007CFF"></path><!----><g transform="translate(16, 16)"><path d="M62.5 58C62.5 69.0457 54.1053 78 43.75 78C33.3947 78 25 69.0457 25 58C25 46.9543 33.625 40.3646 43.75 18C53.875 40.3646 62.5 46.9543 62.5 58Z" fill="#007CFF"></path><path d="M71 29.3333C71 32.4629 68.7614 35 66 35C63.2386 35 61 32.4629 61 29.3333C61 26.2037 63.3 24.3367 66 18C68.7 24.3367 71 26.2037 71 29.3333Z" fill="#007CFF"></path></g></svg>