<svg xmlns="http://www.w3.org/2000/svg" width="24" height="24" viewBox="0 0 24 24" aria-hidden="true">
  <path d="M12 1.7 21 6.9v10.2l-9 5.2-9-5.2V6.9z" fill="#1aa7c0" stroke="#dbfbff" stroke-width="1.5" />
  <path d="M12 3.8 19 7.85v8.3l-7 4.05-7-4.05v-8.3z" fill="#0c2f3d" fill-opacity="0.72" stroke="#78e8f6" stroke-width="1" />
  <path d="M10.45 7.2c.2-.92 1.43-.92 1.63 0 .09.4.51.63.88.45.84-.41 1.71.46 1.3 1.3-.18.37.05.79.45.88.92.2.92 1.43 0 1.63-.4.09-.63.51-.45.88.41.84-.46 1.71-1.3 1.3-.37-.18-.79.05-.88.45-.2.92-1.43.92-1.63 0-.09-.4-.51-.63-.88-.45-.84.41-1.71-.46-1.3-1.3.18-.37-.05-.79-.45-.88-.92-.2-.92-1.43 0-1.63.4-.09.63-.51.45-.88-.41-.84.46-1.71 1.3-1.3.37.18.79-.05.88-.45z" fill="none" stroke="#ffffff" stroke-width="1.45" stroke-linecap="round" stroke-linejoin="round" transform="translate(0.7 0.9) scale(1.05)" />
  <circle cx="12.4" cy="11.4" r="1.55" fill="none" stroke="#ffffff" stroke-width="1.45" />
</svg>
